<?xml version="1.0" standalone="no"?>
<svg xmlns:xlink="http://www.w3.org/1999/xlink" id="wave" style="transform:rotate(0deg); transition: 0.3s" viewBox="0 0 1440 490" version="1.1" xmlns="http://www.w3.org/2000/svg"><defs><linearGradient id="sw-gradient-0" x1="0" x2="0" y1="1" y2="0"><stop stop-color="rgba(95.594, 62, 243, 1)" offset="0%"/><stop stop-color="rgba(205.064, 11, 255, 1)" offset="100%"/></linearGradient></defs><path style="transform:translate(0, 0px); opacity:1" fill="url(#sw-gradient-0)" d="M0,392L34.3,392C68.6,392,137,392,206,400.2C274.3,408,343,425,411,432.8C480,441,549,441,617,367.5C685.7,294,754,147,823,138.8C891.4,131,960,261,1029,318.5C1097.1,376,1166,359,1234,294C1302.9,229,1371,114,1440,98C1508.6,82,1577,163,1646,179.7C1714.3,196,1783,147,1851,171.5C1920,196,1989,294,2057,277.7C2125.7,261,2194,131,2263,65.3C2331.4,0,2400,0,2469,65.3C2537.1,131,2606,261,2674,269.5C2742.9,278,2811,163,2880,155.2C2948.6,147,3017,245,3086,269.5C3154.3,294,3223,245,3291,228.7C3360,212,3429,229,3497,261.3C3565.7,294,3634,343,3703,302.2C3771.4,261,3840,131,3909,65.3C3977.1,0,4046,0,4114,16.3C4182.9,33,4251,65,4320,81.7C4388.6,98,4457,98,4526,147C4594.3,196,4663,294,4731,318.5C4800,343,4869,294,4903,269.5L4937.1,245L4937.1,490L4902.9,490C4868.6,490,4800,490,4731,490C4662.9,490,4594,490,4526,490C4457.1,490,4389,490,4320,490C4251.4,490,4183,490,4114,490C4045.7,490,3977,490,3909,490C3840,490,3771,490,3703,490C3634.3,490,3566,490,3497,490C3428.6,490,3360,490,3291,490C3222.9,490,3154,490,3086,490C3017.1,490,2949,490,2880,490C2811.4,490,2743,490,2674,490C2605.7,490,2537,490,2469,490C2400,490,2331,490,2263,490C2194.3,490,2126,490,2057,490C1988.6,490,1920,490,1851,490C1782.9,490,1714,490,1646,490C1577.1,490,1509,490,1440,490C1371.4,490,1303,490,1234,490C1165.7,490,1097,490,1029,490C960,490,891,490,823,490C754.3,490,686,490,617,490C548.6,490,480,490,411,490C342.9,490,274,490,206,490C137.1,490,69,490,34,490L0,490Z"/><defs><linearGradient id="sw-gradient-1" x1="0" x2="0" y1="1" y2="0"><stop stop-color="rgba(243, 62, 218.73, 1)" offset="0%"/><stop stop-color="rgba(255, 147.895, 11, 1)" offset="100%"/></linearGradient></defs><path style="transform:translate(0, 50px); opacity:0.9" fill="url(#sw-gradient-1)" d="M0,392L34.3,367.5C68.6,343,137,294,206,285.8C274.3,278,343,310,411,302.2C480,294,549,245,617,236.8C685.7,229,754,261,823,245C891.4,229,960,163,1029,171.5C1097.1,180,1166,261,1234,245C1302.9,229,1371,114,1440,65.3C1508.6,16,1577,33,1646,81.7C1714.3,131,1783,212,1851,228.7C1920,245,1989,196,2057,187.8C2125.7,180,2194,212,2263,204.2C2331.4,196,2400,147,2469,138.8C2537.1,131,2606,163,2674,163.3C2742.9,163,2811,131,2880,98C2948.6,65,3017,33,3086,73.5C3154.3,114,3223,229,3291,294C3360,359,3429,376,3497,326.7C3565.7,278,3634,163,3703,155.2C3771.4,147,3840,245,3909,277.7C3977.1,310,4046,278,4114,228.7C4182.9,180,4251,114,4320,147C4388.6,180,4457,310,4526,326.7C4594.3,343,4663,245,4731,220.5C4800,196,4869,245,4903,269.5L4937.1,294L4937.1,490L4902.9,490C4868.6,490,4800,490,4731,490C4662.9,490,4594,490,4526,490C4457.1,490,4389,490,4320,490C4251.4,490,4183,490,4114,490C4045.7,490,3977,490,3909,490C3840,490,3771,490,3703,490C3634.3,490,3566,490,3497,490C3428.6,490,3360,490,3291,490C3222.9,490,3154,490,3086,490C3017.1,490,2949,490,2880,490C2811.4,490,2743,490,2674,490C2605.7,490,2537,490,2469,490C2400,490,2331,490,2263,490C2194.3,490,2126,490,2057,490C1988.6,490,1920,490,1851,490C1782.9,490,1714,490,1646,490C1577.1,490,1509,490,1440,490C1371.4,490,1303,490,1234,490C1165.7,490,1097,490,1029,490C960,490,891,490,823,490C754.3,490,686,490,617,490C548.6,490,480,490,411,490C342.9,490,274,490,206,490C137.1,490,69,490,34,490L0,490Z"/></svg>