<?xml version="1.0" standalone="no"?>
<svg xmlns:xlink="http://www.w3.org/1999/xlink" id="wave" style="transform:rotate(180deg); transition: 0.3s" viewBox="0 0 1440 490" version="1.1" xmlns="http://www.w3.org/2000/svg"><defs><linearGradient id="sw-gradient-0" x1="0" x2="0" y1="1" y2="0"><stop stop-color="rgba(184.498, 62, 243, 1)" offset="0%"/><stop stop-color="rgba(255, 179, 11, 1)" offset="100%"/></linearGradient></defs><path style="transform:translate(0, 0px); opacity:1" fill="url(#sw-gradient-0)" d="M0,196L30,163.3C60,131,120,65,180,57.2C240,49,300,98,360,122.5C420,147,480,147,540,147C600,147,660,147,720,155.2C780,163,840,180,900,220.5C960,261,1020,327,1080,318.5C1140,310,1200,229,1260,212.3C1320,196,1380,245,1440,277.7C1500,310,1560,327,1620,318.5C1680,310,1740,278,1800,245C1860,212,1920,180,1980,187.8C2040,196,2100,245,2160,285.8C2220,327,2280,359,2340,367.5C2400,376,2460,359,2520,326.7C2580,294,2640,245,2700,245C2760,245,2820,294,2880,302.2C2940,310,3000,278,3060,277.7C3120,278,3180,310,3240,302.2C3300,294,3360,245,3420,204.2C3480,163,3540,131,3600,106.2C3660,82,3720,65,3780,106.2C3840,147,3900,245,3960,285.8C4020,327,4080,310,4140,318.5C4200,327,4260,359,4290,375.7L4320,392L4320,490L4290,490C4260,490,4200,490,4140,490C4080,490,4020,490,3960,490C3900,490,3840,490,3780,490C3720,490,3660,490,3600,490C3540,490,3480,490,3420,490C3360,490,3300,490,3240,490C3180,490,3120,490,3060,490C3000,490,2940,490,2880,490C2820,490,2760,490,2700,490C2640,490,2580,490,2520,490C2460,490,2400,490,2340,490C2280,490,2220,490,2160,490C2100,490,2040,490,1980,490C1920,490,1860,490,1800,490C1740,490,1680,490,1620,490C1560,490,1500,490,1440,490C1380,490,1320,490,1260,490C1200,490,1140,490,1080,490C1020,490,960,490,900,490C840,490,780,490,720,490C660,490,600,490,540,490C480,490,420,490,360,490C300,490,240,490,180,490C120,490,60,490,30,490L0,490Z"/><defs><linearGradient id="sw-gradient-1" x1="0" x2="0" y1="1" y2="0"><stop stop-color="rgba(243, 106, 62, 1)" offset="0%"/><stop stop-color="rgba(255, 179, 11, 1)" offset="100%"/></linearGradient></defs><path style="transform:translate(0, 50px); opacity:0.9" fill="url(#sw-gradient-1)" d="M0,0L30,24.5C60,49,120,98,180,147C240,196,300,245,360,220.5C420,196,480,98,540,122.5C600,147,660,294,720,367.5C780,441,840,441,900,408.3C960,376,1020,310,1080,277.7C1140,245,1200,245,1260,277.7C1320,310,1380,376,1440,343C1500,310,1560,180,1620,147C1680,114,1740,180,1800,245C1860,310,1920,376,1980,408.3C2040,441,2100,441,2160,432.8C2220,425,2280,408,2340,392C2400,376,2460,359,2520,334.8C2580,310,2640,278,2700,245C2760,212,2820,180,2880,171.5C2940,163,3000,180,3060,187.8C3120,196,3180,196,3240,196C3300,196,3360,196,3420,220.5C3480,245,3540,294,3600,285.8C3660,278,3720,212,3780,163.3C3840,114,3900,82,3960,57.2C4020,33,4080,16,4140,24.5C4200,33,4260,65,4290,81.7L4320,98L4320,490L4290,490C4260,490,4200,490,4140,490C4080,490,4020,490,3960,490C3900,490,3840,490,3780,490C3720,490,3660,490,3600,490C3540,490,3480,490,3420,490C3360,490,3300,490,3240,490C3180,490,3120,490,3060,490C3000,490,2940,490,2880,490C2820,490,2760,490,2700,490C2640,490,2580,490,2520,490C2460,490,2400,490,2340,490C2280,490,2220,490,2160,490C2100,490,2040,490,1980,490C1920,490,1860,490,1800,490C1740,490,1680,490,1620,490C1560,490,1500,490,1440,490C1380,490,1320,490,1260,490C1200,490,1140,490,1080,490C1020,490,960,490,900,490C840,490,780,490,720,490C660,490,600,490,540,490C480,490,420,490,360,490C300,490,240,490,180,490C120,490,60,490,30,490L0,490Z"/></svg>